# File created by Blade
# Date/Time:  Wed Apr 08 17:19:54 2015
# Frame Rate: 120.000 fps
#------------------------------------------------------
:FULLY-SPECIFIED
:DEGREES
1222
root 10.453939 37.294228 1.176263 185.848054 -42.601047 -155.478946
Spine 8.658888 -1.658677 -4.912792
Head -9.360279 8.621643 22.395425
LeftShoulder -7.524854 13.669655 19.282922
LeftArm 14.004656 23.132084 -75.285949
LeftForeArm 23.864154 -0.000000 22.012847
LeftHand -10.438406 -0.000000 -19.342685
LeftHandThumb1 -26.253704 0.000000 33.147579
RightShoulder -40.818805 -49.624037 30.967067
RightArm 49.445108 -22.888270 60.248516
RightForeArm 16.407477 -0.000000 -0.222170
RightHand -7.594972 -0.000000 9.204953
RightHandThumb1 -24.326973 -0.000000 -32.862282
LeftUpLeg -28.700288 27.618565 -0.407871
LeftLeg 11.000651 -0.000000 -0.000000
LeftFoot -13.932685 16.640214 -5.869579
LeftToeBase -0.507606 -0.000000 0.000000
RightUpLeg 12.071714 3.280061 -8.614958
RightLeg 139.471805 -0.000000 -0.000000
RightFoot 37.740309 5.027764 21.786263
RightToeBase 19.517029 -0.000000 -0.000000
1223
root 10.476568 37.289529 1.218120 186.360539 -42.374871 -155.692763
Spine 8.613918 -1.720758 -5.081006
Head -9.565487 8.773425 22.292749
LeftShoulder -7.540649 13.653250 19.241495
LeftArm 14.012142 23.012688 -75.246076
LeftForeArm 23.911466 -0.000000 21.977580
LeftHand -10.474308 0.000000 -19.314535
LeftHandThumb1 -26.253704 0.000000 33.147579
RightShoulder -40.768791 -49.675816 30.786271
RightArm 49.468953 -23.019842 60.191870
RightForeArm 16.193158 -0.000000 -0.168019
RightHand -7.753601 0.000000 9.228204
RightHandThumb1 -24.326973 -0.000000 -32.862282
LeftUpLeg -29.172053 27.810464 -0.824023
LeftLeg 11.006997 -0.000000 -0.000000
LeftFoot -13.905273 16.602657 -5.882984
LeftToeBase -0.364719 -0.000000 0.000000
RightUpLeg 12.273648 3.554312 -8.586244
RightLeg 139.451731 -0.000000 -0.000000
RightFoot 37.711142 5.045721 21.784394
RightToeBase 19.431271 -0.000000 -0.000000
1224
root 10.499185 37.284304 1.261998 186.861862 -42.137064 -155.904891
Spine 8.586751 -1.743871 -5.235413
Head -9.798591 8.925950 22.159640
LeftShoulder -7.530832 13.625671 19.195495
LeftArm 14.023510 22.849988 -75.208718
LeftForeArm 23.797745 -0.000000 21.968843
LeftHand -10.536719 -0.000000 -19.351473
LeftHandThumb1 -26.253704 0.000000 33.147579
RightShoulder -40.745427 -49.704422 30.604167
RightArm 49.504115 -23.186572 60.108301
RightForeArm 16.035021 -0.000000 -0.108015
RightHand -7.901799 -0.000000 9.370452
RightHandThumb1 -24.326973 -0.000000 -32.862282
LeftUpLeg -29.613125 27.926839 -1.196079
LeftLeg 11.004963 -0.000000 -0.000000
LeftFoot -13.883930 16.636410 -5.916698
LeftToeBase -0.293184 -0.000000 0.000000
RightUpLeg 12.463891 3.816150 -8.570857
RightLeg 139.422280 -0.000000 -0.000000
RightFoot 37.701602 5.056250 21.747311
RightToeBase 19.787053 -0.000000 -0.000000
1225
root 10.520474 37.279937 1.307369 187.359920 -41.870608 -156.137483
Spine 8.588114 -1.751400 -5.422316
Head -10.016678 9.046419 22.032476
LeftShoulder -7.527314 13.579937 19.134105
LeftArm 14.017688 22.674978 -75.190790
LeftForeArm 23.859501 -0.000000 21.928983
LeftHand -10.591539 -0.000000 -19.229875
LeftHandThumb1 -26.253704 0.000000 33.147579
RightShoulder -40.640818 -49.754833 30.394795
RightArm 49.521632 -23.373594 59.982377
RightForeArm 15.951539 -0.000000 0.005435
RightHand -8.100053 -0.000000 9.682550
RightHandThumb1 -24.326973 -0.000000 -32.862282
LeftUpLeg -30.011643 28.029465 -1.560596
LeftLeg 10.985388 -0.000000 -0.000000
LeftFoot -13.853837 16.691040 -5.962442
LeftToeBase -0.218388 -0.000000 0.000000
RightUpLeg 12.679436 4.119723 -8.552042
RightLeg 139.417695 -0.000000 -0.000000
RightFoot 37.626282 5.147182 21.707909
RightToeBase 19.334565 -0.000000 -0.000000
1226
root 10.544332 37.276534 1.353914 187.853500 -41.593199 -156.327741
Spine 8.574250 -1.717552 -5.569275
Head -10.283169 9.168570 21.859790
LeftShoulder -7.549394 13.573715 19.065511
LeftArm 14.148793 22.543409 -75.121923
LeftForeArm 23.697708 -0.000000 21.829782
LeftHand -10.741664 -0.000000 -19.158864
LeftHandThumb1 -26.253704 0.000000 33.147579
RightShoulder -40.623362 -49.798073 30.276875
RightArm 49.599571 -23.522938 59.832105
RightForeArm 15.848465 -0.000000 0.064394
RightHand -8.207338 -0.000000 9.917160
RightHandThumb1 -24.326973 -0.000000 -32.862282
LeftUpLeg -30.454996 28.121492 -1.904258
LeftLeg 10.993767 -0.000000 -0.000000
LeftFoot -13.839328 16.779413 -5.996289
LeftToeBase -0.106683 -0.000000 0.000000
RightUpLeg 12.847708 4.392476 -8.498955
RightLeg 139.416614 -0.000000 -0.000000
RightFoot 37.554472 5.191755 21.632461
RightToeBase 19.319100 -0.000000 -0.000000
1227
root 10.566366 37.272579 1.399369 188.318734 -41.315591 -156.525137
Spine 8.599578 -1.702048 -5.731324
Head -10.539697 9.303094 21.686618
LeftShoulder -7.554236 13.491700 19.017455
LeftArm 14.116033 22.345604 -75.149301
LeftForeArm 23.682897 -0.000000 21.790557
LeftHand -10.814539 -0.000000 -18.994360
LeftHandThumb1 -26.253704 0.000000 33.147579
RightShoulder -40.540235 -49.832225 30.132174
RightArm 49.634739 -23.675605 59.684275
RightForeArm 15.735458 -0.000000 0.149314
RightHand -8.272494 -0.000000 10.194369
RightHandThumb1 -24.326973 -0.000000 -32.862282
LeftUpLeg -30.859042 28.218116 -2.252017
LeftLeg 10.984011 -0.000000 -0.000000
LeftFoot -13.810885 16.887983 -5.991035
LeftToeBase -0.089303 -0.000000 0.000000
RightUpLeg 13.068966 4.671696 -8.424866
RightLeg 139.409573 -0.000000 -0.000000
RightFoot 37.512716 5.203153 21.666095
RightToeBase 19.210891 -0.000000 -0.000000
